<?xml version="1.0" encoding="UTF-8" standalone="no"?> <svg xmlns="http://www.w3.org/2000/svg" viewBox="0 0 48 48"><title>Protection And Security vol.1</title><g id="Layer_10" data-name="Layer 10"><path d="M44.2373,10.665,24.47363,1.26074a1.00435,1.00435,0,0,0-.85058-.0039L14.68457,5.40625,6.38184,9.39844,3.832,10.67383a1.00049,1.00049,0,0,0-.53906.72949c-.12891.76758-3.04883,18.91113,5.4873,28.99512,3.61524,4.27148,8.751,6.4375,15.26368,6.4375,7.93359,0,13.96875-3.376,17.43359-9.72852a19.84731,19.84731,0,0,0,2.17969-5.51367C46.38965,22.249,44.8623,11.85645,44.7959,11.419A.99713.99713,0,0,0,44.2373,10.665ZM41.73242,31.05078l-.00976.03809a18.07183,18.07183,0,0,1-1.98047,5.02539C36.585,41.90137,31.30273,44.83594,24.044,44.83594c-5.89551,0-10.51563-1.92676-13.73438-5.72559C3.11816,30.61914,4.793,15.18652,5.19336,12.22949l10.3457-5.01465,8.5-3.94629L42.88672,12.2373C43.1543,14.44531,44.00977,23.2793,41.73242,31.05078Z"/><path d="M30.40332,18.06738l-9.74414,9.74414-3.0625-3.0625a.99989.99989,0,1,0-1.41406,1.41407l3.76953,3.76953a.99963.99963,0,0,0,1.41406,0L31.81738,19.48145a.99989.99989,0,1,0-1.41406-1.41407Z"/></g></svg>